<svg width="113" height="56" viewBox="0 0 113 56" fill="none" xmlns="http://www.w3.org/2000/svg">
<path d="M7.312 50.128C6.384 50.128 5.55733 49.9413 4.832 49.568C4.10667 49.184 3.536 48.656 3.12 47.984C2.71467 47.312 2.512 46.5493 2.512 45.696C2.512 44.832 2.71467 44.0693 3.12 43.408C3.536 42.736 4.10667 42.2133 4.832 41.84C5.55733 41.456 6.384 41.264 7.312 41.264C8.21867 41.264 9.008 41.456 9.68 41.84C10.352 42.2133 10.848 42.752 11.168 43.456L9.232 44.496C9.008 44.0907 8.72533 43.792 8.384 43.6C8.05333 43.408 7.69067 43.312 7.296 43.312C6.86933 43.312 6.48533 43.408 6.144 43.6C5.80267 43.792 5.53067 44.064 5.328 44.416C5.136 44.768 5.04 45.1947 5.04 45.696C5.04 46.1973 5.136 46.624 5.328 46.976C5.53067 47.328 5.80267 47.6 6.144 47.792C6.48533 47.984 6.86933 48.08 7.296 48.08C7.69067 48.08 8.05333 47.9893 8.384 47.808C8.72533 47.616 9.008 47.312 9.232 46.896L11.168 47.952C10.848 48.6453 10.352 49.184 9.68 49.568C9.008 49.9413 8.21867 50.128 7.312 50.128ZM16.8771 50.128C16.1625 50.128 15.5225 49.9893 14.9571 49.712C14.4025 49.4347 13.9705 49.0133 13.6611 48.448C13.3518 47.872 13.1971 47.1413 13.1971 46.256V41.392H15.6931V45.888C15.6931 46.6027 15.8425 47.1307 16.1411 47.472C16.4505 47.8027 16.8825 47.968 17.4371 47.968C17.8211 47.968 18.1625 47.888 18.4611 47.728C18.7598 47.5573 18.9945 47.3013 19.1651 46.96C19.3358 46.608 19.4211 46.1707 19.4211 45.648V41.392H21.9171V50H19.5491V47.632L19.9811 48.32C19.6931 48.9173 19.2665 49.3707 18.7011 49.68C18.1465 49.9787 17.5385 50.128 16.8771 50.128ZM29.1415 50.128C28.1602 50.128 27.2962 49.936 26.5495 49.552C25.8135 49.168 25.2428 48.6453 24.8375 47.984C24.4322 47.312 24.2295 46.5493 24.2295 45.696C24.2295 44.832 24.4268 44.0693 24.8215 43.408C25.2268 42.736 25.7762 42.2133 26.4695 41.84C27.1628 41.456 27.9468 41.264 28.8215 41.264C29.6642 41.264 30.4215 41.4453 31.0935 41.808C31.7762 42.16 32.3148 42.672 32.7095 43.344C33.1042 44.0053 33.3015 44.8 33.3015 45.728C33.3015 45.824 33.2962 45.936 33.2855 46.064C33.2748 46.1813 33.2642 46.2933 33.2535 46.4H26.2615V44.944H31.9415L30.9815 45.376C30.9815 44.928 30.8908 44.5387 30.7095 44.208C30.5282 43.8773 30.2775 43.6213 29.9575 43.44C29.6375 43.248 29.2642 43.152 28.8375 43.152C28.4108 43.152 28.0322 43.248 27.7015 43.44C27.3815 43.6213 27.1308 43.8827 26.9495 44.224C26.7682 44.5547 26.6775 44.9493 26.6775 45.408V45.792C26.6775 46.2613 26.7788 46.6773 26.9815 47.04C27.1948 47.392 27.4882 47.664 27.8615 47.856C28.2455 48.0373 28.6935 48.128 29.2055 48.128C29.6642 48.128 30.0642 48.0587 30.4055 47.92C30.7575 47.7813 31.0775 47.5733 31.3655 47.296L32.6935 48.736C32.2988 49.184 31.8028 49.5307 31.2055 49.776C30.6082 50.0107 29.9202 50.128 29.1415 50.128ZM40.8352 41.264C41.5179 41.264 42.1259 41.4027 42.6592 41.68C43.2032 41.9467 43.6299 42.3627 43.9392 42.928C44.2486 43.4827 44.4032 44.1973 44.4032 45.072V50H41.9072V45.456C41.9072 44.7627 41.7526 44.2507 41.4432 43.92C41.1446 43.5893 40.7179 43.424 40.1632 43.424C39.7686 43.424 39.4112 43.5093 39.0912 43.68C38.7819 43.84 38.5366 44.0907 38.3552 44.432C38.1846 44.7733 38.0992 45.2107 38.0992 45.744V50H35.6032V41.392H37.9872V43.776L37.5392 43.056C37.8486 42.48 38.2912 42.0373 38.8672 41.728C39.4432 41.4187 40.0992 41.264 40.8352 41.264ZM50.8258 50.128C49.8124 50.128 49.0231 49.872 48.4578 49.36C47.8924 48.8373 47.6098 48.064 47.6098 47.04V39.488H50.1058V47.008C50.1058 47.3707 50.2018 47.6533 50.3938 47.856C50.5858 48.048 50.8471 48.144 51.1778 48.144C51.5724 48.144 51.9084 48.0373 52.1858 47.824L52.8578 49.584C52.6018 49.7653 52.2924 49.904 51.9298 50C51.5778 50.0853 51.2098 50.128 50.8258 50.128ZM46.2818 43.504V41.584H52.2498V43.504H46.2818ZM60.1789 50V48.32L60.0189 47.952V44.944C60.0189 44.4107 59.8535 43.9947 59.5229 43.696C59.2029 43.3973 58.7069 43.248 58.0349 43.248C57.5762 43.248 57.1229 43.3227 56.6749 43.472C56.2375 43.6107 55.8642 43.8027 55.5549 44.048L54.6589 42.304C55.1282 41.9733 55.6935 41.7173 56.3549 41.536C57.0162 41.3547 57.6882 41.264 58.3709 41.264C59.6829 41.264 60.7015 41.5733 61.4269 42.192C62.1522 42.8107 62.5149 43.776 62.5149 45.088V50H60.1789ZM57.5549 50.128C56.8829 50.128 56.3069 50.016 55.8269 49.792C55.3469 49.5573 54.9789 49.2427 54.7229 48.848C54.4669 48.4533 54.3389 48.0107 54.3389 47.52C54.3389 47.008 54.4615 46.56 54.7069 46.176C54.9629 45.792 55.3629 45.4933 55.9069 45.28C56.4509 45.056 57.1602 44.944 58.0349 44.944H60.3229V46.4H58.3069C57.7202 46.4 57.3149 46.496 57.0909 46.688C56.8775 46.88 56.7709 47.12 56.7709 47.408C56.7709 47.728 56.8935 47.984 57.1389 48.176C57.3949 48.3573 57.7415 48.448 58.1789 48.448C58.5949 48.448 58.9682 48.352 59.2989 48.16C59.6295 47.9573 59.8695 47.664 60.0189 47.28L60.4029 48.432C60.2215 48.9867 59.8909 49.408 59.4109 49.696C58.9309 49.984 58.3122 50.128 57.5549 50.128ZM68.3099 50.128C67.5739 50.128 66.8645 50.0427 66.1819 49.872C65.5099 49.6907 64.9765 49.4667 64.5819 49.2L65.4139 47.408C65.8085 47.6533 66.2725 47.856 66.8059 48.016C67.3499 48.1653 67.8832 48.24 68.4059 48.24C68.9819 48.24 69.3872 48.1707 69.6219 48.032C69.8672 47.8933 69.9899 47.7013 69.9899 47.456C69.9899 47.2533 69.8939 47.104 69.7019 47.008C69.5205 46.9013 69.2752 46.8213 68.9659 46.768C68.6565 46.7147 68.3152 46.6613 67.9419 46.608C67.5792 46.5547 67.2112 46.4853 66.8379 46.4C66.4645 46.304 66.1232 46.1653 65.8139 45.984C65.5045 45.8027 65.2539 45.5573 65.0619 45.248C64.8805 44.9387 64.7899 44.5387 64.7899 44.048C64.7899 43.504 64.9445 43.024 65.2539 42.608C65.5739 42.192 66.0325 41.8667 66.6299 41.632C67.2272 41.3867 67.9419 41.264 68.7739 41.264C69.3605 41.264 69.9579 41.328 70.5659 41.456C71.1739 41.584 71.6805 41.7707 72.0859 42.016L71.2539 43.792C70.8379 43.5467 70.4165 43.3813 69.9899 43.296C69.5739 43.2 69.1685 43.152 68.7739 43.152C68.2192 43.152 67.8139 43.2267 67.5579 43.376C67.3019 43.5253 67.1739 43.7173 67.1739 43.952C67.1739 44.1653 67.2645 44.3253 67.4459 44.432C67.6379 44.5387 67.8885 44.624 68.1979 44.688C68.5072 44.752 68.8432 44.8107 69.2059 44.864C69.5792 44.9067 69.9525 44.976 70.3259 45.072C70.6992 45.168 71.0352 45.3067 71.3339 45.488C71.6432 45.6587 71.8939 45.8987 72.0859 46.208C72.2779 46.5067 72.3739 46.9013 72.3739 47.392C72.3739 47.9253 72.2139 48.4 71.8939 48.816C71.5739 49.2213 71.1099 49.5413 70.5019 49.776C69.9045 50.0107 69.1739 50.128 68.3099 50.128ZM85.4211 50V48.144L85.3731 47.84V44.736C85.3731 44.0213 85.1705 43.472 84.7651 43.088C84.3705 42.704 83.7785 42.512 82.9891 42.512C82.4451 42.512 81.9278 42.6027 81.4371 42.784C80.9465 42.9653 80.5305 43.2053 80.1891 43.504L79.6771 42.656C80.1038 42.2933 80.6158 42.016 81.2131 41.824C81.8105 41.6213 82.4398 41.52 83.1011 41.52C84.1891 41.52 85.0265 41.792 85.6131 42.336C86.2105 42.8693 86.5091 43.6853 86.5091 44.784V50H85.4211ZM82.5251 50.08C81.8958 50.08 81.3465 49.9787 80.8771 49.776C80.4185 49.5627 80.0665 49.2747 79.8211 48.912C79.5758 48.5387 79.4531 48.112 79.4531 47.632C79.4531 47.1947 79.5545 46.8 79.7571 46.448C79.9705 46.0853 80.3118 45.7973 80.7811 45.584C81.2611 45.36 81.9011 45.248 82.7011 45.248H85.5971V46.096H82.7331C81.9225 46.096 81.3571 46.24 81.0371 46.528C80.7278 46.816 80.5731 47.1733 80.5731 47.6C80.5731 48.08 80.7598 48.464 81.1331 48.752C81.5065 49.04 82.0291 49.184 82.7011 49.184C83.3411 49.184 83.8905 49.04 84.3491 48.752C84.8185 48.4533 85.1598 48.0267 85.3731 47.472L85.6291 48.256C85.4158 48.8107 85.0425 49.2533 84.5091 49.584C83.9865 49.9147 83.3251 50.08 82.5251 50.08ZM94.5706 50.08C93.8453 50.08 93.1893 49.9147 92.6026 49.584C92.016 49.2427 91.5466 48.7573 91.1946 48.128C90.8533 47.488 90.6826 46.7093 90.6826 45.792C90.6826 44.8747 90.8533 44.1013 91.1946 43.472C91.536 42.832 92 42.3467 92.5866 42.016C93.1733 41.6853 93.8346 41.52 94.5706 41.52C95.3706 41.52 96.0853 41.7013 96.7146 42.064C97.3546 42.416 97.856 42.9173 98.2186 43.568C98.5813 44.208 98.7626 44.9493 98.7626 45.792C98.7626 46.6453 98.5813 47.392 98.2186 48.032C97.856 48.672 97.3546 49.1733 96.7146 49.536C96.0853 49.8987 95.3706 50.08 94.5706 50.08ZM90.2346 53.104V41.6H91.3226V44.128L91.2106 45.808L91.3706 47.504V53.104H90.2346ZM94.4906 49.072C95.088 49.072 95.6213 48.9387 96.0906 48.672C96.56 48.3947 96.9333 48.0107 97.2106 47.52C97.488 47.0187 97.6266 46.4427 97.6266 45.792C97.6266 45.1413 97.488 44.5707 97.2106 44.08C96.9333 43.5893 96.56 43.2053 96.0906 42.928C95.6213 42.6507 95.088 42.512 94.4906 42.512C93.8933 42.512 93.3546 42.6507 92.8746 42.928C92.4053 43.2053 92.032 43.5893 91.7546 44.08C91.488 44.5707 91.3546 45.1413 91.3546 45.792C91.3546 46.4427 91.488 47.0187 91.7546 47.52C92.032 48.0107 92.4053 48.3947 92.8746 48.672C93.3546 48.9387 93.8933 49.072 94.4906 49.072ZM106.054 50.08C105.329 50.08 104.673 49.9147 104.086 49.584C103.5 49.2427 103.03 48.7573 102.678 48.128C102.337 47.488 102.166 46.7093 102.166 45.792C102.166 44.8747 102.337 44.1013 102.678 43.472C103.02 42.832 103.484 42.3467 104.07 42.016C104.657 41.6853 105.318 41.52 106.054 41.52C106.854 41.52 107.569 41.7013 108.198 42.064C108.838 42.416 109.34 42.9173 109.702 43.568C110.065 44.208 110.246 44.9493 110.246 45.792C110.246 46.6453 110.065 47.392 109.702 48.032C109.34 48.672 108.838 49.1733 108.198 49.536C107.569 49.8987 106.854 50.08 106.054 50.08ZM101.718 53.104V41.6H102.806V44.128L102.694 45.808L102.854 47.504V53.104H101.718ZM105.974 49.072C106.572 49.072 107.105 48.9387 107.574 48.672C108.044 48.3947 108.417 48.0107 108.694 47.52C108.972 47.0187 109.11 46.4427 109.11 45.792C109.11 45.1413 108.972 44.5707 108.694 44.08C108.417 43.5893 108.044 43.2053 107.574 42.928C107.105 42.6507 106.572 42.512 105.974 42.512C105.377 42.512 104.838 42.6507 104.358 42.928C103.889 43.2053 103.516 43.5893 103.238 44.08C102.972 44.5707 102.838 45.1413 102.838 45.792C102.838 46.4427 102.972 47.0187 103.238 47.52C103.516 48.0107 103.889 48.3947 104.358 48.672C104.838 48.9387 105.377 49.072 105.974 49.072Z" fill="#DAEBD7"/>
<path d="M40 22.9333V2.23349C40 1.36959 41.0216 0.912178 41.666 1.48756L49.2993 8.3031C49.7242 8.68255 49.9672 9.22524 49.9672 9.79496V22.9333H40Z" fill="#DAEBD7"/>
<path d="M62.0328 32V11.3002C62.0328 10.4363 63.0545 9.97884 63.6989 10.5542L71.3321 17.3698C71.7571 17.7492 72 18.2919 72 18.8616V32H62.0328Z" fill="#DAEBD7"/>
<path d="M60.9836 32V2.21687C60.9836 1.35561 59.9674 0.897214 59.3218 1.46724L51.6927 8.2029C51.2627 8.58255 51.0164 9.12855 51.0164 9.70217V32H60.9836Z" fill="#DAEBD7"/>
</svg>
