<?xml version="1.0" encoding="UTF-8"?>
<svg id="Capa_1" data-name="Capa 1" xmlns="http://www.w3.org/2000/svg" viewBox="0 0 1024 1024">
  <defs>
    <style>
      .cls-1 {
        fill: #131051;
        stroke-width: 0px;
      }
    </style>
  </defs>
  <path class="cls-1" d="M133.52,689.17c-7.16,0-13.53-1.44-19.13-4.32-5.59-2.96-10-7.03-13.21-12.22-3.13-5.18-4.69-11.07-4.69-17.65s1.56-12.55,4.69-17.65c3.21-5.18,7.61-9.22,13.21-12.09,5.59-2.96,11.97-4.44,19.13-4.44s13.08,1.48,18.27,4.44c5.18,2.88,9.01,7.03,11.48,12.46l-14.93,8.02c-1.73-3.13-3.91-5.43-6.54-6.91-2.55-1.48-5.35-2.22-8.39-2.22-3.29,0-6.25.74-8.89,2.22-2.63,1.48-4.73,3.58-6.29,6.29-1.48,2.72-2.22,6.01-2.22,9.87s.74,7.16,2.22,9.87c1.56,2.72,3.66,4.81,6.29,6.29,2.63,1.48,5.59,2.22,8.89,2.22,3.04,0,5.84-.7,8.39-2.1,2.63-1.48,4.81-3.83,6.54-7.03l14.93,8.15c-2.47,5.35-6.29,9.5-11.48,12.46-5.18,2.88-11.27,4.32-18.27,4.32ZM207.3,689.17c-5.51,0-10.45-1.07-14.81-3.21-4.28-2.14-7.61-5.39-10-9.75-2.39-4.44-3.58-10.08-3.58-16.91v-37.52h19.25v34.68c0,5.51,1.15,9.59,3.46,12.22,2.39,2.55,5.72,3.83,10,3.83,2.96,0,5.6-.62,7.9-1.85,2.3-1.32,4.11-3.29,5.43-5.92,1.32-2.72,1.97-6.09,1.97-10.12v-32.83h19.25v66.4h-18.27v-18.27l3.33,5.31c-2.22,4.61-5.51,8.1-9.87,10.49-4.28,2.3-8.97,3.46-14.07,3.46ZM301.91,689.17c-7.57,0-14.23-1.48-19.99-4.44-5.68-2.96-10.08-6.99-13.21-12.09-3.13-5.18-4.69-11.07-4.69-17.65s1.52-12.55,4.57-17.65c3.13-5.18,7.36-9.22,12.71-12.09,5.35-2.96,11.4-4.44,18.14-4.44s12.34,1.4,17.52,4.2c5.27,2.72,9.42,6.66,12.46,11.85,3.04,5.1,4.57,11.23,4.57,18.39,0,.74-.04,1.6-.12,2.59-.08.9-.16,1.77-.25,2.59h-53.93v-11.23h43.81l-7.4,3.33c0-3.46-.7-6.46-2.1-9.01-1.4-2.55-3.33-4.53-5.8-5.92-2.47-1.48-5.35-2.22-8.64-2.22s-6.21.74-8.76,2.22c-2.47,1.4-4.4,3.41-5.8,6.05-1.4,2.55-2.1,5.59-2.1,9.13v2.96c0,3.62.78,6.83,2.34,9.63,1.65,2.72,3.91,4.81,6.79,6.29,2.96,1.4,6.42,2.1,10.37,2.1,3.54,0,6.62-.53,9.26-1.6,2.72-1.07,5.18-2.67,7.4-4.81l10.24,11.11c-3.04,3.46-6.87,6.13-11.48,8.02-4.61,1.81-9.91,2.72-15.92,2.72ZM392.1,620.79c5.27,0,9.96,1.07,14.07,3.21,4.2,2.06,7.49,5.27,9.87,9.63,2.39,4.28,3.58,9.79,3.58,16.54v38.01h-19.25v-35.05c0-5.35-1.19-9.3-3.58-11.85-2.3-2.55-5.59-3.83-9.87-3.83-3.04,0-5.8.66-8.27,1.97-2.39,1.23-4.28,3.17-5.68,5.8-1.32,2.63-1.97,6.01-1.97,10.12v32.83h-19.25v-66.4h18.39v18.39l-3.46-5.55c2.39-4.44,5.8-7.86,10.24-10.24,4.44-2.39,9.5-3.58,15.18-3.58ZM469.17,689.17c-7.82,0-13.91-1.97-18.27-5.92-4.36-4.03-6.54-10-6.54-17.9v-58.25h19.25v58.01c0,2.8.74,4.98,2.22,6.54,1.48,1.48,3.5,2.22,6.05,2.22,3.04,0,5.64-.82,7.78-2.47l5.18,13.58c-1.97,1.4-4.36,2.47-7.16,3.21-2.72.66-5.55.99-8.52.99ZM434.12,638.07v-14.81h46.03v14.81h-46.03ZM541.31,688.18v-12.96l-1.23-2.84v-23.2c0-4.11-1.28-7.32-3.83-9.63-2.47-2.3-6.29-3.46-11.48-3.46-3.54,0-7.03.58-10.49,1.73-3.37,1.07-6.25,2.55-8.64,4.44l-6.91-13.45c3.62-2.55,7.98-4.53,13.08-5.92,5.1-1.4,10.28-2.1,15.55-2.1,10.12,0,17.98,2.39,23.57,7.16,5.59,4.77,8.39,12.22,8.39,22.34v37.89h-18.02ZM521.07,689.17c-5.18,0-9.63-.86-13.33-2.59-3.7-1.81-6.54-4.24-8.52-7.28s-2.96-6.46-2.96-10.24.95-7.4,2.84-10.37c1.97-2.96,5.06-5.27,9.26-6.91,4.2-1.73,9.67-2.59,16.41-2.59h17.65v11.23h-15.55c-4.53,0-7.65.74-9.38,2.22-1.65,1.48-2.47,3.33-2.47,5.55,0,2.47.95,4.44,2.84,5.92,1.97,1.4,4.65,2.1,8.02,2.1s6.09-.74,8.64-2.22c2.55-1.56,4.4-3.83,5.55-6.79l2.96,8.89c-1.4,4.28-3.95,7.53-7.65,9.75-3.7,2.22-8.47,3.33-14.32,3.33ZM604.03,689.17c-5.68,0-11.15-.66-16.41-1.97-5.18-1.4-9.3-3.13-12.34-5.18l6.42-13.82c3.04,1.89,6.62,3.46,10.74,4.69,4.2,1.15,8.31,1.73,12.34,1.73,4.44,0,7.57-.53,9.38-1.6,1.89-1.07,2.84-2.55,2.84-4.44,0-1.56-.74-2.72-2.22-3.46-1.4-.82-3.29-1.44-5.68-1.85-2.39-.41-5.02-.82-7.9-1.23-2.8-.41-5.64-.95-8.52-1.6-2.88-.74-5.51-1.81-7.9-3.21-2.39-1.4-4.32-3.29-5.8-5.68-1.4-2.39-2.1-5.47-2.1-9.26,0-4.2,1.19-7.9,3.58-11.11,2.47-3.21,6.01-5.72,10.61-7.53,4.61-1.89,10.12-2.84,16.54-2.84,4.52,0,9.13.49,13.82,1.48,4.69.99,8.6,2.43,11.72,4.32l-6.42,13.7c-3.21-1.89-6.46-3.17-9.75-3.83-3.21-.74-6.34-1.11-9.38-1.11-4.28,0-7.4.58-9.38,1.73-1.97,1.15-2.96,2.63-2.96,4.44,0,1.65.7,2.88,2.1,3.7,1.48.82,3.41,1.48,5.8,1.97,2.39.49,4.98.95,7.78,1.36,2.88.33,5.76.86,8.64,1.6,2.88.74,5.47,1.81,7.78,3.21,2.39,1.32,4.32,3.17,5.8,5.55,1.48,2.3,2.22,5.35,2.22,9.13,0,4.11-1.23,7.78-3.7,10.98-2.47,3.13-6.05,5.59-10.74,7.4-4.61,1.81-10.24,2.72-16.91,2.72ZM736.01,688.18v-14.32l-.37-2.34v-23.94c0-5.51-1.56-9.75-4.69-12.71-3.04-2.96-7.61-4.44-13.7-4.44-4.2,0-8.19.7-11.97,2.1-3.78,1.4-6.99,3.25-9.63,5.55l-3.95-6.54c3.29-2.8,7.24-4.94,11.85-6.42,4.61-1.56,9.46-2.34,14.56-2.34,8.39,0,14.85,2.1,19.38,6.29,4.61,4.11,6.91,10.41,6.91,18.88v40.23h-8.39ZM713.68,688.8c-4.85,0-9.09-.78-12.71-2.34-3.54-1.65-6.25-3.87-8.15-6.66-1.89-2.88-2.84-6.17-2.84-9.87,0-3.37.78-6.42,2.34-9.13,1.65-2.8,4.28-5.02,7.9-6.66,3.7-1.73,8.64-2.59,14.81-2.59h22.34v6.54h-22.09c-6.25,0-10.61,1.11-13.08,3.33-2.39,2.22-3.58,4.98-3.58,8.27,0,3.7,1.44,6.66,4.32,8.89,2.88,2.22,6.91,3.33,12.09,3.33s9.17-1.11,12.71-3.33c3.62-2.3,6.25-5.59,7.9-9.87l1.97,6.05c-1.65,4.28-4.52,7.69-8.64,10.24-4.03,2.55-9.13,3.83-15.3,3.83ZM806.59,688.8c-5.59,0-10.65-1.28-15.18-3.83-4.52-2.63-8.15-6.38-10.86-11.23-2.63-4.94-3.95-10.94-3.95-18.02s1.32-13.04,3.95-17.9c2.63-4.94,6.21-8.68,10.74-11.23,4.53-2.55,9.63-3.83,15.3-3.83,6.17,0,11.68,1.4,16.54,4.2,4.94,2.72,8.8,6.58,11.6,11.6,2.8,4.94,4.2,10.65,4.2,17.15s-1.4,12.34-4.2,17.28c-2.8,4.94-6.66,8.8-11.6,11.6-4.85,2.8-10.37,4.2-16.54,4.2ZM773.14,712.12v-88.74h8.39v19.5l-.86,12.96,1.23,13.08v43.2h-8.76ZM805.97,681.02c4.61,0,8.72-1.03,12.34-3.09,3.62-2.14,6.5-5.1,8.64-8.89,2.14-3.87,3.21-8.31,3.21-13.33s-1.07-9.42-3.21-13.21c-2.14-3.79-5.02-6.75-8.64-8.89-3.62-2.14-7.73-3.21-12.34-3.21s-8.76,1.07-12.46,3.21c-3.62,2.14-6.5,5.1-8.64,8.89-2.06,3.78-3.09,8.19-3.09,13.21s1.03,9.46,3.09,13.33c2.14,3.78,5.02,6.75,8.64,8.89,3.7,2.06,7.86,3.09,12.46,3.09ZM895.17,688.8c-5.59,0-10.65-1.28-15.18-3.83-4.52-2.63-8.15-6.38-10.86-11.23-2.63-4.94-3.95-10.94-3.95-18.02s1.32-13.04,3.95-17.9c2.64-4.94,6.22-8.68,10.74-11.23,4.53-2.55,9.63-3.83,15.3-3.83,6.17,0,11.69,1.4,16.54,4.2,4.94,2.72,8.81,6.58,11.6,11.6,2.8,4.94,4.2,10.65,4.2,17.15s-1.4,12.34-4.2,17.28c-2.79,4.94-6.66,8.8-11.6,11.6-4.85,2.8-10.37,4.2-16.54,4.2ZM861.72,712.12v-88.74h8.39v19.5l-.86,12.96,1.23,13.08v43.2h-8.76ZM894.55,681.02c4.61,0,8.72-1.03,12.34-3.09,3.63-2.14,6.5-5.1,8.64-8.89,2.14-3.87,3.21-8.31,3.21-13.33s-1.06-9.42-3.21-13.21c-2.14-3.79-5.01-6.75-8.64-8.89-3.62-2.14-7.73-3.21-12.34-3.21s-8.76,1.07-12.46,3.21c-3.62,2.14-6.49,5.1-8.64,8.89-2.05,3.78-3.09,8.19-3.09,13.21s1.03,9.46,3.09,13.33c2.14,3.78,5.02,6.75,8.64,8.89,3.7,2.06,7.86,3.09,12.46,3.09Z"/>
  <path class="cls-1" d="M385.66,479.4v-159.67c0-6.66,7.88-10.19,12.85-5.75l58.88,52.57c3.28,2.93,5.15,7.11,5.15,11.51v101.34h-76.88Z"/>
  <path class="cls-1" d="M555.61,549.34v-159.67c0-6.66,7.88-10.19,12.85-5.75l58.88,52.57c3.28,2.93,5.15,7.11,5.15,11.51v101.34h-76.88Z"/>
  <path class="cls-1" d="M547.52,549.34v-229.73c0-6.64-7.84-10.18-12.82-5.78l-58.85,51.96c-3.32,2.93-5.22,7.14-5.22,11.56v171.99h76.88Z"/>
</svg>