<svg xmlns="http://www.w3.org/2000/svg" viewBox="0 0 500 500" style="enable-background:new 0 0 500 500" xml:space="preserve"><path d="M421.9 343.5c-9.4 20.8-13.9 30.2-26 48.5-16.8 25.7-40.7 57.8-70.1 58-26.2.2-32.9-17.1-68.5-16.8-35.6.1-43 17.1-69.2 16.8-29.4-.2-51.9-29.2-68.8-54.8-47.2-71.9-52.2-156.2-23-201 20.6-31.8 53.3-50.5 84-50.5 31.2 0 50.8 17.1 76.7 17.1 25.1 0 40.3-17.2 76.5-17.2 27.3 0 56.2 14.9 76.8 40.6-67.6 37-56.7 133.5 11.6 159.3zm-116-228.6C319.1 98.1 329 74.3 325.5 50 304 51.5 279 65.2 264.3 82.9 251 99 240 123 244.3 146.2c23.4.8 47.6-13.2 61.6-31.3z"/></svg>