<?xml version="1.0" encoding="UTF-8"?>
<svg id="Capa_1" data-name="Capa 1" xmlns="http://www.w3.org/2000/svg" viewBox="0 0 500 500">
  <defs>
    <style>
      .cls-1 {
        stroke-width: 0px;
      }
    </style>
  </defs>
  <path class="cls-1" d="M421.87,343.46c-9.4,20.82-13.88,30.15-25.97,48.51-16.83,25.73-40.65,57.78-70.13,57.97-26.16.25-32.91-17.07-68.47-16.76-35.55.12-42.98,17.07-69.2,16.83-29.41-.25-51.95-29.17-68.84-54.77-47.22-71.91-52.19-156.22-23.03-201.04,20.63-31.81,53.3-50.48,84-50.48s50.84,17.13,76.7,17.13,40.28-17.19,76.45-17.19c27.26,0,56.19,14.86,76.82,40.59-67.55,36.97-56.55,133.43,11.67,159.23ZM305.93,114.91c13.14-16.83,23.09-40.65,19.53-64.91-21.49,1.47-46.55,15.17-61.22,32.85-13.26,16.15-24.26,40.16-19.96,63.37,23.4.74,47.59-13.2,61.65-31.32Z"/>
</svg>