<?xml version="1.0" encoding="UTF-8"?>
<svg id="Capa_1" data-name="Capa 1" xmlns="http://www.w3.org/2000/svg" viewBox="0 0 500 500">
  <defs>
    <style>
      .cls-1 {
        fill: #1877f1;
      }

      .cls-1, .cls-2 {
        stroke-width: 0px;
      }

      .cls-2 {
        fill: #fff;
      }
    </style>
  </defs>
  <path class="cls-1" d="M250,50c-110.46,0-200,89.54-200,200s89.54,200,200,200,200-89.54,200-200S360.46,50,250,50Z"/>
  <path class="cls-2" d="M277.07,304.01h51.76l8.13-52.58h-59.89v-28.74c0-21.84,7.14-41.21,27.57-41.21h32.83v-45.88c-5.77-.78-17.97-2.48-41.02-2.48-48.14,0-76.36,25.42-76.36,83.34v34.98h-49.48v52.58h49.48v144.52c9.8,1.47,19.73,2.47,29.92,2.47,9.21,0,18.2-.84,27.07-2.04v-144.95Z"/>
</svg>