<?xml version="1.0" encoding="UTF-8"?>
<svg id="Capa_1" data-name="Capa 1" xmlns="http://www.w3.org/2000/svg" viewBox="0 0 500 500">
  <defs>
    <style>
      .cls-1 {
        fill: #4caf50;
      }

      .cls-1, .cls-2, .cls-3, .cls-4 {
        stroke-width: 0px;
      }

      .cls-2 {
        fill: #1976d2;
      }

      .cls-3 {
        fill: #ffc107;
      }

      .cls-4 {
        fill: #ff3d00;
      }
    </style>
  </defs>
  <path class="cls-3" d="M446.11,210.83h-16.11v-.83h-180v80h113.03c-16.49,46.57-60.8,80-113.03,80-66.27,0-120-53.73-120-120s53.73-120,120-120c30.59,0,58.42,11.54,79.61,30.39l56.57-56.57c-35.72-33.29-83.5-53.82-136.18-53.82-110.45,0-200,89.55-200,200s89.55,200,200,200,200-89.55,200-200c0-13.41-1.38-26.5-3.89-39.17Z"/>
  <path class="cls-4" d="M73.06,156.91l65.71,48.19c17.78-44.02,60.84-75.1,111.23-75.1,30.59,0,58.42,11.54,79.61,30.39l56.57-56.57c-35.72-33.29-83.5-53.82-136.18-53.82-76.82,0-143.44,43.37-176.94,106.91Z"/>
  <path class="cls-1" d="M250,450c51.66,0,98.6-19.77,134.09-51.92l-61.9-52.38c-20.08,15.21-45.04,24.3-72.19,24.3-52.02,0-96.19-33.17-112.83-79.46l-65.22,50.25c33.1,64.77,100.32,109.21,178.05,109.21Z"/>
  <path class="cls-2" d="M446.11,210.83h-16.11v-.83h-180v80h113.03c-7.92,22.37-22.31,41.66-40.87,55.71,0,0,.02,0,.03-.02l61.9,52.38c-4.38,3.98,65.91-48.07,65.91-148.07,0-13.41-1.38-26.5-3.89-39.17Z"/>
</svg>