<svg xmlns="http://www.w3.org/2000/svg" viewBox="0 0 500 500" style="enable-background:new 0 0 500 500" xml:space="preserve"><path style="fill:#ffc107" d="M446.1 210.8H430v-.8H250v80h113c-16.5 46.6-60.8 80-113 80-66.3 0-120-53.7-120-120s53.7-120 120-120c30.6 0 58.4 11.5 79.6 30.4l56.6-56.6C350.5 70.5 302.7 50 250 50 139.6 50 50 139.6 50 250s89.6 200 200 200 200-89.6 200-200c0-13.4-1.4-26.5-3.9-39.2z"/><path style="fill:#ff3d00" d="m73.1 156.9 65.7 48.2c17.8-44 60.8-75.1 111.2-75.1 30.6 0 58.4 11.5 79.6 30.4l56.6-56.6C350.5 70.5 302.7 50 250 50c-76.8 0-143.4 43.4-176.9 106.9z"/><path style="fill:#4caf50" d="M250 450c51.7 0 98.6-19.8 134.1-51.9l-61.9-52.4c-20.1 15.2-45 24.3-72.2 24.3-52 0-96.2-33.2-112.8-79.5L72 340.8C105.1 405.6 172.3 450 250 450z"/><path style="fill:#1976d2" d="M446.1 210.8H430v-.8H250v80h113c-7.9 22.4-22.3 41.7-40.9 55.7l61.9 52.4c-4.4 4 65.9-48.1 65.9-148.1.1-13.4-1.3-26.5-3.8-39.2z"/></svg>